<svg width="623" height="166" viewBox="0 0 623 166" fill="none" xmlns="http://www.w3.org/2000/svg">
<path d="M5 0V166L617 83.3132L5 0Z" fill="#4CBE85"/>
<path d="M72.9 118H50.7L27.2 82.4V118H5V47.2H27.2L50.7 83.4V47.2H72.9V118ZM105.13 47.2V118H82.9297V47.2H105.13ZM170.756 47.2V64.8H151.956V118H129.756V64.8H111.156V47.2H170.756ZM212.377 118L199.077 92.6H198.977V118H176.777V47.2H209.777C215.511 47.2 220.411 48.2333 224.477 50.3C228.544 52.3 231.577 55.0667 233.577 58.6C235.644 62.0667 236.677 66 236.677 70.4C236.677 75.1333 235.344 79.3333 232.677 83C230.077 86.6667 226.311 89.3 221.377 90.9L236.777 118H212.377ZM198.977 77.8H207.777C209.911 77.8 211.511 77.3333 212.577 76.4C213.644 75.4 214.177 73.8667 214.177 71.8C214.177 69.9333 213.611 68.4667 212.477 67.4C211.411 66.3333 209.844 65.8 207.777 65.8H198.977V77.8ZM278.27 118.7C271.603 118.7 265.47 117.133 259.87 114C254.336 110.867 249.936 106.533 246.67 101C243.403 95.4667 241.77 89.2333 241.77 82.3C241.77 75.3667 243.403 69.1333 246.67 63.6C249.936 58.0667 254.336 53.7667 259.87 50.7C265.47 47.5667 271.603 46 278.27 46C284.936 46 291.036 47.5667 296.57 50.7C302.103 53.7667 306.47 58.0667 309.67 63.6C312.936 69.1333 314.57 75.3667 314.57 82.3C314.57 89.2333 312.936 95.4667 309.67 101C306.47 106.533 302.07 110.867 296.47 114C290.936 117.133 284.87 118.7 278.27 118.7ZM278.27 98C282.67 98 286.07 96.6 288.47 93.8C290.87 90.9333 292.07 87.1 292.07 82.3C292.07 77.4333 290.87 73.6 288.47 70.8C286.07 67.9333 282.67 66.5 278.27 66.5C273.803 66.5 270.37 67.9333 267.97 70.8C265.57 73.6 264.37 77.4333 264.37 82.3C264.37 87.1 265.57 90.9333 267.97 93.8C270.37 96.6 273.803 98 278.27 98ZM352.078 47.2C359.478 47.2 365.945 48.7 371.478 51.7C377.078 54.7 381.378 58.8667 384.378 64.2C387.378 69.5333 388.878 75.6 388.878 82.4C388.878 89.1333 387.378 95.2 384.378 100.6C381.378 106 377.078 110.267 371.478 113.4C365.945 116.467 359.478 118 352.078 118H322.578V47.2H352.078ZM350.078 98.2C355.078 98.2 359.045 96.8333 361.978 94.1C364.911 91.3667 366.378 87.4667 366.378 82.4C366.378 77.3333 364.911 73.4333 361.978 70.7C359.045 67.9667 355.078 66.6 350.078 66.6H344.778V98.2H350.078ZM432.495 118L419.195 92.6H419.095V118H396.895V47.2H429.895C435.628 47.2 440.528 48.2333 444.595 50.3C448.661 52.3 451.695 55.0667 453.695 58.6C455.761 62.0667 456.795 66 456.795 70.4C456.795 75.1333 455.461 79.3333 452.795 83C450.195 86.6667 446.428 89.3 441.495 90.9L456.895 118H432.495ZM419.095 77.8H427.895C430.028 77.8 431.628 77.3333 432.695 76.4C433.761 75.4 434.295 73.8667 434.295 71.8C434.295 69.9333 433.728 68.4667 432.595 67.4C431.528 66.3333 429.961 65.8 427.895 65.8H419.095V77.8ZM486.087 47.2V118H463.887V47.2H486.087ZM567.413 47.2L543.613 118H514.913L491.113 47.2H514.713L529.313 95.9L543.813 47.2H567.413ZM594.583 64.9V73.6H616.583V90.3H594.583V100.3H619.583V118H572.383V47.2H619.583V64.9H594.583Z" fill="white"/>
</svg>
